<svg width="400" height="400" viewBox="0 0 400 400" fill="none" xmlns="http://www.w3.org/2000/svg">
<rect width="400" height="400" rx="10" fill="white"/>
<rect x="2" y="2" width="396" height="396" rx="8" stroke="#D9D9D9" stroke-opacity="0.866667" stroke-width="4"/>
<rect x="11.7073" y="11.4723" width="376.585" height="61.9503" rx="10" fill="url(#paint0_linear_238_17)"/>
<rect x="12.2073" y="11.9723" width="375.585" height="60.9503" rx="9.5" stroke="#D9D9D9" stroke-opacity="0.866667"/>
<rect x="212.683" y="94.8375" width="175.61" height="83.3652" rx="10" fill="url(#paint1_linear_238_17)"/>
<rect x="213.183" y="95.3375" width="174.61" height="82.3652" rx="9.5" stroke="#D9D9D9" stroke-opacity="0.866667"/>
<rect x="212.683" y="199.618" width="175.61" height="83.3652" rx="10" fill="url(#paint2_linear_238_17)"/>
<rect x="213.183" y="200.118" width="174.61" height="82.3652" rx="9.5" stroke="#D9D9D9" stroke-opacity="0.866667"/>
<rect x="212.683" y="304.398" width="175.61" height="83.3652" rx="10" fill="url(#paint3_linear_238_17)"/>
<rect x="213.183" y="304.898" width="174.61" height="82.3652" rx="9.5" stroke="#D9D9D9" stroke-opacity="0.866667"/>
<rect x="11.7073" y="94.8375" width="188.618" height="292.925" rx="10" fill="url(#paint4_linear_238_17)"/>
<rect x="12.2073" y="95.3375" width="187.618" height="291.925" rx="9.5" stroke="#D9D9D9" stroke-opacity="0.866667"/>
<defs>
<linearGradient id="paint0_linear_238_17" x1="89.1057" y1="23.9379" x2="118.612" y2="149.298" gradientUnits="userSpaceOnUse">
<stop stop-color="#7702FF"/>
<stop offset="0.27" stop-color="#AC18E5" stop-opacity="0.88"/>
<stop offset="0.93" stop-color="#CC26D5"/>
<stop offset="1" stop-color="#7702FF" stop-opacity="0"/>
</linearGradient>
<linearGradient id="paint1_linear_238_17" x1="248.775" y1="111.612" x2="331.527" y2="233.445" gradientUnits="userSpaceOnUse">
<stop stop-color="#7702FF"/>
<stop offset="0.27" stop-color="#AC18E5" stop-opacity="0.88"/>
<stop offset="0.93" stop-color="#CC26D5"/>
<stop offset="1" stop-color="#7702FF" stop-opacity="0"/>
</linearGradient>
<linearGradient id="paint2_linear_238_17" x1="248.775" y1="216.392" x2="331.527" y2="338.225" gradientUnits="userSpaceOnUse">
<stop stop-color="#7702FF"/>
<stop offset="0.27" stop-color="#AC18E5" stop-opacity="0.88"/>
<stop offset="0.93" stop-color="#CC26D5"/>
<stop offset="1" stop-color="#7702FF" stop-opacity="0"/>
</linearGradient>
<linearGradient id="paint3_linear_238_17" x1="248.775" y1="321.172" x2="331.527" y2="443.005" gradientUnits="userSpaceOnUse">
<stop stop-color="#7702FF"/>
<stop offset="0.27" stop-color="#AC18E5" stop-opacity="0.88"/>
<stop offset="0.93" stop-color="#CC26D5"/>
<stop offset="1" stop-color="#7702FF" stop-opacity="0"/>
</linearGradient>
<linearGradient id="paint4_linear_238_17" x1="50.4733" y1="153.78" x2="284.595" y2="259.144" gradientUnits="userSpaceOnUse">
<stop stop-color="#7702FF"/>
<stop offset="0.27" stop-color="#AC18E5" stop-opacity="0.88"/>
<stop offset="0.93" stop-color="#CC26D5"/>
<stop offset="1" stop-color="#7702FF" stop-opacity="0"/>
</linearGradient>
</defs>
</svg>
